<svg xmlns="http://www.w3.org/2000/svg" viewBox="0 0 18.18 20"><defs><style>.cls-1{fill:#363636;}</style></defs><title>anexos</title><g id="Layer_2" data-name="Layer 2"><g id="Camada_1" data-name="Camada 1"><path class="cls-1" d="M14.91,4.49a1,1,0,0,0,.31-.74A1,1,0,0,0,14.91,3a1.07,1.07,0,0,0-1.48,0L3.85,12.6a2.86,2.86,0,0,0-1,2.4,2.28,2.28,0,0,0,.66,1.32,2.49,2.49,0,0,0,1.79.81,3,3,0,0,0,2.07-1L17,6.5a4.05,4.05,0,0,0,1.16-2.21A3.54,3.54,0,0,0,17,1.13,3.57,3.57,0,0,0,13.77.06a4.24,4.24,0,0,0-2.18,1.13L2,10.75c-2.5,2.5-2.67,5.45-.43,7.69A4.78,4.78,0,0,0,5,20a6.12,6.12,0,0,0,4.21-2l8.3-8.34a1,1,0,0,0,.31-.74,1,1,0,0,0-.31-.74,1,1,0,0,0-1.48,0l-8.3,8.34a4.23,4.23,0,0,1-2.47,1.41A2.68,2.68,0,0,1,3.05,17c-1.78-1.78-.75-3.55.43-4.73l9.58-9.56a2.22,2.22,0,0,1,1.08-.56,1.49,1.49,0,0,1,1.37.5A1.57,1.57,0,0,1,16.08,4a2.09,2.09,0,0,1-.58,1L5.87,14.63c-.1.1-.41.41-.59.41a.58.58,0,0,1-.31-.2c-.06-.06-.2-.2.36-.76Z"/></g></g></svg>