<svg xmlns="http://www.w3.org/2000/svg" viewBox="0 0 64.17 42.46"><defs><style>.cls-1{fill:#fff;}</style></defs><title>Catalogo</title><g id="Layer_2" data-name="Layer 2"><g id="Camada_1" data-name="Camada 1"><path class="cls-1" d="M33.52,41.5l-1.44,1c-3.66,0-5.44-1.7-6.15-3.19H0V0H26.9c4,0,6.32,3.73,6.41,3.89l.21.34ZM2.87,36.39H28.28l.13,1.3c0,.13.27,1.35,2.24,1.76V5.08A5.1,5.1,0,0,0,26.9,2.87h-24Zm29.21,6.07-1.43-1V4.23l.2-.34C31,3.73,33.23,0,37.27,0h26.9V39.27H38.24C37.53,40.76,35.75,42.46,32.08,42.46ZM33.52,5.08V39.45c2.08-.43,2.24-1.75,2.24-1.76l.13-1.3h25.4V2.87h-24A5.07,5.07,0,0,0,33.52,5.08Z"/><path class="cls-1" d="M13.17,9.55v6h-6v-6h6m0-2h-6a2,2,0,0,0-2,2v6a2,2,0,0,0,2,2h6a2,2,0,0,0,2-2v-6a2,2,0,0,0-2-2Z"/><path class="cls-1" d="M26.17,9.55v6h-6v-6h6m0-2h-6a2,2,0,0,0-2,2v6a2,2,0,0,0,2,2h6a2,2,0,0,0,2-2v-6a2,2,0,0,0-2-2Z"/><path class="cls-1" d="M13.17,23.55v6h-6v-6h6m0-2h-6a2,2,0,0,0-2,2v6a2,2,0,0,0,2,2h6a2,2,0,0,0,2-2v-6a2,2,0,0,0-2-2Z"/><path class="cls-1" d="M26.17,23.55v6h-6v-6h6m0-2h-6a2,2,0,0,0-2,2v6a2,2,0,0,0,2,2h6a2,2,0,0,0,2-2v-6a2,2,0,0,0-2-2Z"/><path class="cls-1" d="M44.17,9.55v6h-6v-6h6m0-2h-6a2,2,0,0,0-2,2v6a2,2,0,0,0,2,2h6a2,2,0,0,0,2-2v-6a2,2,0,0,0-2-2Z"/><path class="cls-1" d="M57.17,9.55v6h-6v-6h6m0-2h-6a2,2,0,0,0-2,2v6a2,2,0,0,0,2,2h6a2,2,0,0,0,2-2v-6a2,2,0,0,0-2-2Z"/><path class="cls-1" d="M44.17,23.55v6h-6v-6h6m0-2h-6a2,2,0,0,0-2,2v6a2,2,0,0,0,2,2h6a2,2,0,0,0,2-2v-6a2,2,0,0,0-2-2Z"/><path class="cls-1" d="M57.17,23.55v6h-6v-6h6m0-2h-6a2,2,0,0,0-2,2v6a2,2,0,0,0,2,2h6a2,2,0,0,0,2-2v-6a2,2,0,0,0-2-2Z"/></g></g></svg>