<svg xmlns="http://www.w3.org/2000/svg" viewBox="0 0 20 17.74"><defs><style>.cls-1{fill:#363636;}</style></defs><title>comentarios</title><g id="Layer_2" data-name="Layer 2"><g id="Camada_1" data-name="Camada 1"><path class="cls-1" d="M16.21,0H3.79A3.79,3.79,0,0,0,0,3.79v13a1,1,0,0,0,.89,1H1a1,1,0,0,0,.63-.23l4.25-3.72H16.21A3.79,3.79,0,0,0,20,10V3.79A3.79,3.79,0,0,0,16.21,0Zm1.86,3.79V10a1.84,1.84,0,0,1-1.86,1.86H5.48a1,1,0,0,0-.63.24L1.93,14.65V3.79A1.84,1.84,0,0,1,3.79,1.93H16.21A1.84,1.84,0,0,1,18.07,3.79Z"/><circle class="cls-1" cx="4.17" cy="6.87" r="1.17"/><circle class="cls-1" cx="15.83" cy="6.87" r="1.17"/><circle class="cls-1" cx="10" cy="6.87" r="1.17"/></g></g></svg>