<svg xmlns="http://www.w3.org/2000/svg" viewBox="0 0 20.18 19.98"><defs><style>.cls-1{fill:#363636;}</style></defs><title>consutarentradas</title><g id="Layer_2" data-name="Layer 2"><g id="Camada_1" data-name="Camada 1"><path class="cls-1" d="M8,16H4.15A1.56,1.56,0,0,1,3,15.55a2.67,2.67,0,0,1-.56-1.74V7.9c0-.19,0-.38,0-.56s0-.41,0-.6H6.61V8.23A1.19,1.19,0,1,0,9,8.23V6.74h4.26V8a1.19,1.19,0,0,0,2.37,0V6l2.1-2.1c.07.21.09.36.1.36v7a1.19,1.19,0,0,0,2.37,0V4.17a4.88,4.88,0,0,0-1.35-2.88,4.64,4.64,0,0,0-3-1.29H7A4.92,4.92,0,0,0,3.52,1.49L1,4A4.15,4.15,0,0,0,0,7.39v6.37A5,5,0,0,0,1.24,17.2a3.87,3.87,0,0,0,2.91,1.15H8A1.19,1.19,0,1,0,8,16ZM4,4.36,5.19,3.17A2.55,2.55,0,0,1,7,2.37H8.73l-1.52,2Zm11.8-2h.11l-2,2H10.2l1.52-2Z"/><path class="cls-1" d="M16.38,11a3.89,3.89,0,1,0-.59,6l2.95,3,1.42-1.42-3.06-3A3.89,3.89,0,0,0,16.38,11Zm-4.1,4.1a1.9,1.9,0,1,1,2.69,0A1.91,1.91,0,0,1,12.28,15.12Z"/></g></g></svg>