<svg xmlns="http://www.w3.org/2000/svg" viewBox="0 0 20.19 19.92"><defs><style>.cls-1{fill:#363636;}</style></defs><title>Consultarenvios</title><g id="Layer_2" data-name="Layer 2"><g id="Camada_1" data-name="Camada 1"><path class="cls-1" d="M19.65,14.34l-8.37-3.83a.94.94,0,0,0-.7,0,.93.93,0,0,0-.5,1.26l1.67,3.43-1.67,3.44a.91.91,0,0,0,.43,1.22.92.92,0,0,0,.39.09.84.84,0,0,0,.38-.08L19.65,16a.89.89,0,0,0,.53-.89A.91.91,0,0,0,19.65,14.34Zm0,.81Zm-4.53.94-2.25,1,.5-1Zm0-1.83H13.34l-.5-1Z"/><path class="cls-1" d="M8,16H4.15A1.56,1.56,0,0,1,3,15.55a2.67,2.67,0,0,1-.56-1.74V7.9c0-.19,0-.38,0-.56s0-.41,0-.6H6.61V8.23A1.19,1.19,0,1,0,9,8.23V6.74h4.26V8a1.19,1.19,0,0,0,2.37,0V6l2.1-2.1c.07.21.09.36.1.36v7a1.19,1.19,0,0,0,2.37,0V4.17a4.88,4.88,0,0,0-1.35-2.88,4.64,4.64,0,0,0-3-1.29H7A4.92,4.92,0,0,0,3.52,1.49L1,4A4.15,4.15,0,0,0,0,7.39v6.37A5,5,0,0,0,1.24,17.2a3.87,3.87,0,0,0,2.91,1.15H8A1.19,1.19,0,1,0,8,16ZM4,4.36,5.19,3.17A2.55,2.55,0,0,1,7,2.37H8.73l-1.52,2Zm11.8-2h.11l-2,2H10.2l1.52-2Z"/></g></g></svg>