<svg xmlns="http://www.w3.org/2000/svg" viewBox="0 0 15.97 19"><defs><style>.cls-1{fill:#363636;}</style></defs><title>eliminar</title><g id="Layer_2" data-name="Layer 2"><g id="Camada_1" data-name="Camada 1"><path class="cls-1" d="M13.31,2.11H11.7A2.64,2.64,0,0,0,9.1,0H6.87a2.66,2.66,0,0,0-2.6,2.11H2.66A2.67,2.67,0,0,0,0,4.77V5.3A2.69,2.69,0,0,0,1.4,7.65v7.48A3.88,3.88,0,0,0,5.28,19H10.7a3.88,3.88,0,0,0,3.87-3.87V7.63A2.65,2.65,0,0,0,16,5.28V4.74A2.65,2.65,0,0,0,13.31,2.11ZM12.15,8V15.1a1.47,1.47,0,0,1-1.45,1.45H5.28A1.43,1.43,0,0,1,3.83,15.1V8Zm1.4-3.2V5.3a.24.24,0,0,1-.24.24H2.66a.24.24,0,0,1-.24-.24V4.77a.24.24,0,0,1,.24-.24H13.31A.24.24,0,0,1,13.55,4.77Z"/></g></g></svg>