<svg xmlns="http://www.w3.org/2000/svg" viewBox="0 0 64.3 58.01"><defs><style>.cls-1{fill:#fff;}</style></defs><title>entradas-de-pecas</title><g id="Layer_2" data-name="Layer 2"><g id="Camada_1" data-name="Camada 1"><path class="cls-1" d="M50.82,40.88A1.5,1.5,0,0,0,48.7,43l4.51,4.51H33.76a1.5,1.5,0,0,0,0,3H53.21L48.7,55a1.49,1.49,0,0,0,0,2.12,1.45,1.45,0,0,0,1.06.44,1.48,1.48,0,0,0,1.06-.44l7.07-7.07a1.51,1.51,0,0,0,0-2.12Z"/><path class="cls-1" d="M62.26,41a1.5,1.5,0,0,0-1.5,1.5v13a1.5,1.5,0,0,0,3,0v-13A1.5,1.5,0,0,0,62.26,41Z"/><path class="cls-1" d="M64.29,12a14.48,14.48,0,0,0-3.9-8.33A13.43,13.43,0,0,0,51.93,0H21.5A14.46,14.46,0,0,0,11.35,4.37L2.68,13C-.12,15.85,0,19.23,0,22.81q0,.89,0,1.8V44.89c0,.25-.2,6.11,3.48,9.94A10.88,10.88,0,0,0,11.72,58H24.89a1.5,1.5,0,1,0,0-3H11.72a8,8,0,0,1-6-2.24c-2.8-2.9-2.66-7.71-2.66-7.82V24.61c0-.63,0-1.26,0-1.87A20.47,20.47,0,0,1,3.28,18H22.76v7.74a1.5,1.5,0,0,0,3,0V18H45.58v6.82a1.5,1.5,0,1,0,3,0v-7.7L59,6.68a12,12,0,0,1,2.26,5.53v24a1.5,1.5,0,0,0,3,0v-24A.49.49,0,0,0,64.29,12ZM56.84,4.65,46.46,15H27.29L36.5,3H51.89A10.79,10.79,0,0,1,56.84,4.65ZM13.47,6.49a11.43,11.43,0,0,1,8-3.49H32.72l-9.2,12H4.94Z"/></g></g></svg>