<svg xmlns="http://www.w3.org/2000/svg" viewBox="0 0 18.45 17.12"><defs><style>.cls-1{fill:#363636;}</style></defs><title>enviar</title><g id="Layer_2" data-name="Layer 2"><g id="Camada_1" data-name="Camada 1"><path class="cls-1" d="M17.71,7.41,1.78.11a1.23,1.23,0,0,0-1,0A1.26,1.26,0,0,0,.11.75a1.23,1.23,0,0,0,0,1.06L3.4,8.56.12,15.31a1.3,1.3,0,0,0,0,1A1.24,1.24,0,0,0,.72,17a1.29,1.29,0,0,0,.54.12A1.4,1.4,0,0,0,1.79,17l15.92-7.3a1.28,1.28,0,0,0,.74-1.22h0A1.27,1.27,0,0,0,17.71,7.41ZM11.4,9.82,3.94,13.24,5.6,9.82Zm0-2.52H5.6L3.94,3.88ZM.67,1.55Zm.87,14.91ZM17.85,8.52Z"/></g></g></svg>