<svg xmlns="http://www.w3.org/2000/svg" viewBox="0 0 64.2 55.74"><defs><style>.cls-1{fill:#fff;}</style></defs><title>estampados</title><g id="Layer_2" data-name="Layer 2"><g id="Camada_1" data-name="Camada 1"><path class="cls-1" d="M64.09,20.9c-.07-.15-.16-.33-.27-.52h0a30,30,0,0,0-2.15-3.15l-.32-.43-.17-.23h0C58.54,13.1,55,8.84,53.53,7.14,49.23,2.06,40.15.11,39.76,0h-.38l-.12,0-.21,0-.11,0a1.58,1.58,0,0,0-.26.13s0,0,0,0A12.13,12.13,0,0,1,32.1,1.82,12.11,12.11,0,0,1,25.54.25l-.05,0A1.36,1.36,0,0,0,25.25.1l-.15,0L25,0l-.17,0h-.16l-.15,0h0C24,.11,15,2.06,10.66,7.14c-1,1.23-4.82,5.73-7.59,9.37,0,0,0,0,0,0A27.28,27.28,0,0,0,.11,20.9a.59.59,0,0,0,0,.19,1.37,1.37,0,0,0,.33,1.36l1.84,1.86c3.06,3.06,7.53,7.38,8.83,7.87a1.38,1.38,0,0,0,.45.08h.05l.09,0a1.45,1.45,0,0,0,.35-.07l.14,0a1.2,1.2,0,0,0,.4-.26l.14-.13V54.33a1.41,1.41,0,0,0,1.41,1.41h36a1.41,1.41,0,0,0,1.41-1.41V31.74l.14.13a1.25,1.25,0,0,0,.4.26l.14,0a1.53,1.53,0,0,0,.36.07l.08,0h0a1.36,1.36,0,0,0,.44-.08h0c1.61-.6,8-7,10.67-9.73A1.41,1.41,0,0,0,64.09,20.9ZM6.58,16.58l0,0c1.66-2.11,3.6-4.48,5.37-6.59a5,5,0,0,1,.68,2.44V24c-2.52-2.43-4.85-4.8-6.67-6.67H6Zm-1,7.11c-.8-.78-1.63-1.61-2.47-2.46.28-.44.66-1,1.13-1.63,2.1,2.15,5.14,5.22,8.34,8.24l-1.24,1.21C10.26,28.14,8.11,26.13,5.63,23.69ZM48.68,52.92H15.51V28.38h0v-16a7.52,7.52,0,0,0-1.57-4.53c2.8-2.45,7-3.94,9.34-4.6a8.43,8.43,0,0,0,1.89,4.92C26.71,10,29,10.89,32.1,10.89S37.48,10,39,8.17a8.45,8.45,0,0,0,1.89-4.92c2.28.66,6.53,2.15,9.33,4.6a7.52,7.52,0,0,0-1.57,4.53V52.92ZM27.37,4.07l.24.06a13.19,13.19,0,0,0,1.31.27l.13,0c.4.06.82.11,1.25.14l.36,0c.47,0,.95,0,1.44,0s1,0,1.45,0l.33,0c.45,0,.89-.08,1.32-.15h0c.47-.07.91-.16,1.35-.27l.2,0c.4-.11.79-.22,1.16-.36h0a5.26,5.26,0,0,1-1.14,2.63c-1,1.14-2.59,1.72-4.77,1.72s-3.79-.58-4.78-1.72a5.29,5.29,0,0,1-1.14-2.63l.07,0C26.61,3.86,27,4,27.37,4.07Zm29.4,11.45c.15.2.31.39.46.58l.18.23.4.51c.07.09.14.19.22.28l.15.19C56.36,19.18,54,21.55,51.51,24V12.38a5,5,0,0,1,.68-2.44c1.46,1.74,3,3.65,4.46,5.43ZM59.9,19.6c.48.65.86,1.2,1.13,1.63-3.47,3.5-6.74,6.62-8.23,7.82l-1.21-1.18,0,0C54.77,24.82,57.81,21.75,59.9,19.6Z"/><path class="cls-1" d="M32.1,17.62A9.34,9.34,0,1,0,41.45,27,9.36,9.36,0,0,0,32.1,17.62Zm0,16A6.64,6.64,0,1,1,38.75,27,6.65,6.65,0,0,1,32.1,33.59Z"/><path class="cls-1" d="M35,25.53H33.45V23.94a1.36,1.36,0,0,0-2.71,0v1.59H29.15a1.36,1.36,0,0,0,0,2.71h1.59v1.59a1.36,1.36,0,0,0,2.71,0V28.24H35a1.36,1.36,0,0,0,0-2.71Z"/></g></g></svg>