<svg xmlns="http://www.w3.org/2000/svg" viewBox="0 0 64 43.71"><defs><style>.cls-1{fill:#fff;}</style></defs><title>fornecedores</title><g id="Layer_2" data-name="Layer 2"><g id="Camada_1" data-name="Camada 1"><path class="cls-1" d="M41.37,0a1.57,1.57,0,0,1,1.31.71L51,13.56l12,4.49a1.61,1.61,0,0,1,1,1.46v18A1.62,1.62,0,0,1,62.44,39H55.78a7,7,0,0,1-13.22,0H21.44A7,7,0,0,1,8.22,39H1.56A1.62,1.62,0,0,1,0,37.46V26.54a1.56,1.56,0,0,1,3.12,0V35.9H7.85a7,7,0,0,1,14,0H42.2a7,7,0,0,1,13.95,0h4.73V20.59l-11.47-4.3a1.61,1.61,0,0,1-.78-.61L40.51,3.12H1.56A1.56,1.56,0,0,1,1.56,0ZM24.94,6.24a1.57,1.57,0,0,1,0,3.13H3.12a1.57,1.57,0,0,1,0-3.13Zm0,6.25a1.56,1.56,0,0,1,0,3.12H4.68a1.56,1.56,0,0,1,0-3.12Zm0,6.24a1.56,1.56,0,0,1,0,3.12H7.8a1.56,1.56,0,1,1,0-3.12Zm-14,18a3.9,3.9,0,1,0,3.9-3.9A3.88,3.88,0,0,0,10.93,36.68Zm34.34,0a3.9,3.9,0,1,0,3.9-3.9A3.88,3.88,0,0,0,45.27,36.68Z"/></g></g></svg>