<svg xmlns="http://www.w3.org/2000/svg" viewBox="0 0 15.06 15.06"><defs><style>.cls-1{fill:#363636;}</style></defs><title>guardar</title><g id="Layer_2" data-name="Layer 2"><g id="Camada_1" data-name="Camada 1"><path class="cls-1" d="M14.76,3.11,12,.3a1,1,0,0,0-.73-.3H1.73A1.74,1.74,0,0,0,0,1.73v11.6a1.73,1.73,0,0,0,1.73,1.73h11.6a1.72,1.72,0,0,0,1.73-1.73V3.84A1,1,0,0,0,14.76,3.11ZM4.69,4.92V2.05h5V4.92Zm7,1V3L13,4.27V13h-11v-11h.59V6a1,1,0,0,0,1,1h7A1,1,0,0,0,11.72,6Z"/><path class="cls-1" d="M7.53,7.21A2.79,2.79,0,1,0,10.32,10,2.79,2.79,0,0,0,7.53,7.21Zm0,3.51A.73.73,0,1,1,8.26,10,.72.72,0,0,1,7.53,10.72Z"/></g></g></svg>