<svg xmlns="http://www.w3.org/2000/svg" viewBox="0 0 17.78 15.34"><defs><style>.cls-1{fill:#fff;stroke:#fff;stroke-miterlimit:10;stroke-width:1.5px;}</style></defs><title>iconlogout</title><g id="Layer_2" data-name="Layer 2"><g id="Camada_1" data-name="Camada 1"><path class="cls-1" d="M16.91,7.38a.41.41,0,0,1,0,.58l-3.25,3.26a.44.44,0,0,1-.58,0,.41.41,0,0,1,0-.58l2.56-2.56H9.3a.41.41,0,0,1-.41-.41.41.41,0,0,1,.41-.41h6.34L13.08,4.7a.4.4,0,0,1,0-.57.41.41,0,0,1,.58,0ZM7.67,14.59A6.92,6.92,0,1,1,11.09,1.66a.41.41,0,0,1,.15.55.4.4,0,0,1-.55.16,6.11,6.11,0,1,0-3,11.41,6.17,6.17,0,0,0,3-.8.4.4,0,0,1,.55.15.41.41,0,0,1-.15.55A6.87,6.87,0,0,1,7.67,14.59Z"/></g></g></svg>