<svg xmlns="http://www.w3.org/2000/svg" viewBox="0 0 20.83 19.19"><defs><style>.cls-1{fill:#ed356a;}</style></defs><title>login-erro</title><g id="Layer_2" data-name="Layer 2"><g id="Camada_1" data-name="Camada 1"><path class="cls-1" d="M9,10.82a1.35,1.35,0,0,0,1.38,1.34,1.39,1.39,0,0,0,1.38-1.35l.21-5a1.6,1.6,0,1,0-3.19,0l.22,5Z"/><path class="cls-1" d="M20.17,12.62,14.12,2.14a4.28,4.28,0,0,0-7.41,0L.57,12.77a4.28,4.28,0,0,0,3.71,6.42h13v-.06a4.3,4.3,0,0,0,3.5-4.21A4.24,4.24,0,0,0,20.17,12.62ZM10.41,2.51A1.78,1.78,0,0,1,12,3.39L18.05,14a1.82,1.82,0,0,1,.28,1,1.79,1.79,0,0,1-1.77,1.77H4.28A1.78,1.78,0,0,1,2.74,14L8.88,3.39A1.77,1.77,0,0,1,10.41,2.51Z"/><path class="cls-1" d="M10.42,16a1.83,1.83,0,0,0,1.82-1.83,1.83,1.83,0,0,0-.53-1.29,1.9,1.9,0,0,0-2.59,0A1.83,1.83,0,0,0,10.42,16Zm-.23-2a.34.34,0,0,1,.23-.1.37.37,0,0,1,.23.1.36.36,0,0,1,.09.22.33.33,0,0,1-.1.23h0a.35.35,0,0,1-.45,0,.32.32,0,0,1-.09-.23A.29.29,0,0,1,10.19,14Z"/></g></g></svg>