<svg xmlns="http://www.w3.org/2000/svg" viewBox="0 0 32 32"><defs><style>.cls-1{fill:#4aa8f5;}.cls-2,.cls-3{fill:none;stroke:#363636;stroke-miterlimit:10;}.cls-2{stroke-width:2.5px;}.cls-3{stroke-width:2.2px;}</style></defs><title>refresh</title><g id="Layer_2" data-name="Layer 2"><g id="Camada_1" data-name="Camada 1"><path class="cls-1" d="M16,2.5A13.5,13.5,0,1,1,2.5,16,13.52,13.52,0,0,1,16,2.5M16,0A16,16,0,1,0,32,16,16,16,0,0,0,16,0Z"/><path class="cls-2" d="M8.93,14.7a7.18,7.18,0,0,1,14-1.26"/><polyline class="cls-3" points="25.07 9.23 23.64 14.47 18.4 13.05"/><path class="cls-2" d="M23.07,17.3a7.18,7.18,0,0,1-14,1.26"/><polyline class="cls-3" points="6.93 22.77 8.36 17.52 13.6 18.95"/></g></g></svg>