<svg xmlns="http://www.w3.org/2000/svg" viewBox="0 0 19.92 20.17"><defs><style>.cls-1{fill:#fff;}</style></defs><title>registospendentes</title><g id="Layer_2" data-name="Layer 2"><g id="Camada_1" data-name="Camada 1"><path class="cls-1" d="M15.06,10.46a4.94,4.94,0,0,0-1.79.33,8.06,8.06,0,0,0-1.07-.62,5.78,5.78,0,1,0-7.48,0A8.53,8.53,0,0,0,0,17.83v.57H2.26v-.57a6.21,6.21,0,0,1,9-5.59,4.86,4.86,0,1,0,3.76-1.78Zm2.6,4.85a2.6,2.6,0,1,1-2.6-2.6A2.6,2.6,0,0,1,17.66,15.31ZM4.92,5.78A3.53,3.53,0,1,1,8.44,9.31,3.53,3.53,0,0,1,4.92,5.78Z"/><polygon class="cls-1" points="15.88 15.34 15.88 13.65 14.62 13.65 14.62 15.86 15.97 17.22 16.87 16.33 15.88 15.34"/></g></g></svg>